<svg width="30" height="16" viewBox="0 0 30 16" fill="none" xmlns="http://www.w3.org/2000/svg">
<rect x="0.5" y="0.5" width="29" height="15" rx="3.5" fill="#004D43"/>
<path d="M4.8 11V9.984H6.064V6.744L5.096 7.312L4.624 6.408L6.424 5.36H7.304V9.984H8.488V11H4.8ZM11.5914 11V5.36H12.8314V7.816H12.8474L15.1914 5.36H16.6794L14.0554 8.056L16.7914 11H15.2874L12.8474 8.424H12.8314V11H11.5914ZM18.4436 11.088C17.937 11.088 17.5663 10.9573 17.3316 10.696C17.097 10.4293 16.9796 10.0347 16.9796 9.512V5.36H18.1876V9.464C18.1876 9.89067 18.377 10.104 18.7556 10.104C18.8143 10.104 18.8703 10.1013 18.9236 10.096C18.9823 10.0907 19.0383 10.08 19.0916 10.064L19.0756 11C18.873 11.0587 18.6623 11.088 18.4436 11.088ZM19.5957 6.312V5.184H20.8997V6.312H19.5957ZM19.6437 11V7.072H20.8517V11H19.6437ZM21.7843 11V5.36H22.9923V8.696H23.0083L24.4563 7.072H25.8883L24.2243 8.952L25.9683 11H24.5123L23.0083 9.304H22.9923V11H21.7843Z" fill="white"/>
<rect x="0.5" y="0.5" width="29" height="15" rx="3.5" stroke="white"/>
</svg>
