<svg width="53" height="41" viewBox="0 0 53 41" fill="none" xmlns="http://www.w3.org/2000/svg">
<path d="M10.38 13.86C9.61999 13.86 8.96999 13.71 8.42999 13.41C7.89 13.11 7.47333 12.69 7.18 12.15C6.89333 11.6033 6.75 10.96 6.75 10.22C6.75 9.48668 6.89333 8.85001 7.18 8.31001C7.47333 7.76335 7.89 7.34001 8.42999 7.04002C8.96999 6.74002 9.61999 6.59002 10.38 6.59002C10.8467 6.59002 11.2933 6.66335 11.72 6.81002C12.1467 6.95668 12.4967 7.15668 12.77 7.41002L12.29 8.64001C11.99 8.40668 11.6867 8.23668 11.38 8.13001C11.08 8.01668 10.7633 7.96001 10.43 7.96001C9.75666 7.96001 9.24666 8.15668 8.89999 8.55001C8.55999 8.93668 8.39 9.49334 8.39 10.22C8.39 10.9467 8.55999 11.5067 8.89999 11.9C9.24666 12.2933 9.75666 12.49 10.43 12.49C10.7633 12.49 11.08 12.4367 11.38 12.33C11.6867 12.2167 11.99 12.0433 12.29 11.81L12.77 13.04C12.4967 13.2867 12.1467 13.4867 11.72 13.64C11.2933 13.7867 10.8467 13.86 10.38 13.86ZM15.6646 13.86C15.1379 13.86 14.6779 13.7567 14.2846 13.55C13.8979 13.3367 13.5979 13.04 13.3846 12.66C13.1713 12.2733 13.0646 11.8167 13.0646 11.29C13.0646 10.77 13.1713 10.32 13.3846 9.94001C13.5979 9.55334 13.8979 9.25668 14.2846 9.05001C14.6779 8.84334 15.1379 8.74001 15.6646 8.74001C16.1913 8.74001 16.6479 8.84334 17.0346 9.05001C17.4279 9.25668 17.7312 9.55334 17.9446 9.94001C18.1646 10.32 18.2746 10.77 18.2746 11.29C18.2746 11.8167 18.1646 12.2733 17.9446 12.66C17.7312 13.04 17.4279 13.3367 17.0346 13.55C16.6479 13.7567 16.1913 13.86 15.6646 13.86ZM15.6646 12.73C15.9846 12.73 16.2446 12.6133 16.4446 12.38C16.6513 12.1467 16.7546 11.7833 16.7546 11.29C16.7546 10.8033 16.6513 10.4467 16.4446 10.22C16.2446 9.98668 15.9846 9.87001 15.6646 9.87001C15.3446 9.87001 15.0846 9.98668 14.8846 10.22C14.6846 10.4467 14.5846 10.8033 14.5846 11.29C14.5846 11.7833 14.6846 12.1467 14.8846 12.38C15.0846 12.6133 15.3446 12.73 15.6646 12.73ZM22.2232 13.86C21.8766 13.86 21.5632 13.7833 21.2832 13.63C21.0099 13.4767 20.8066 13.2733 20.6732 13.02V13.75H19.1933V6.70002H20.7032V9.50001C20.8499 9.26668 21.0566 9.08334 21.3232 8.95001C21.5966 8.81001 21.8966 8.74001 22.2232 8.74001C22.6499 8.74001 23.0232 8.84334 23.3432 9.05001C23.6699 9.25668 23.9232 9.55001 24.1032 9.93001C24.2832 10.31 24.3732 10.7633 24.3732 11.29C24.3732 11.8167 24.2832 12.2733 24.1032 12.66C23.9232 13.04 23.6699 13.3367 23.3432 13.55C23.0232 13.7567 22.6499 13.86 22.2232 13.86ZM21.7732 12.73C22.0932 12.73 22.3532 12.6133 22.5532 12.38C22.7532 12.1467 22.8532 11.7833 22.8532 11.29C22.8532 10.8033 22.7532 10.4467 22.5532 10.22C22.3532 9.98668 22.0932 9.87001 21.7732 9.87001C21.4466 9.87001 21.1832 9.98668 20.9832 10.22C20.7832 10.4467 20.6832 10.8033 20.6832 11.29C20.6832 11.7833 20.7832 12.1467 20.9832 12.38C21.1832 12.6133 21.4466 12.73 21.7732 12.73ZM26.9567 13.86C26.5901 13.86 26.2667 13.79 25.9868 13.65C25.7068 13.51 25.4834 13.32 25.3168 13.08C25.1568 12.84 25.0768 12.57 25.0768 12.27C25.0768 11.9167 25.1701 11.6333 25.3568 11.42C25.5434 11.2067 25.8468 11.0567 26.2667 10.97C26.6867 10.8767 27.2434 10.83 27.9367 10.83H28.2967V10.66C28.2967 10.3667 28.2301 10.16 28.0967 10.04C27.9634 9.91334 27.7367 9.85001 27.4167 9.85001C27.1501 9.85001 26.8667 9.89334 26.5667 9.98001C26.2734 10.06 25.9801 10.1833 25.6868 10.35L25.2768 9.34001C25.4501 9.22668 25.6601 9.12334 25.9068 9.03001C26.1601 8.93668 26.4234 8.86668 26.6967 8.82001C26.9701 8.76668 27.2301 8.74001 27.4767 8.74001C28.2367 8.74001 28.8034 8.91334 29.1767 9.26001C29.5501 9.60001 29.7367 10.13 29.7367 10.85V13.75H28.3267V13.01C28.2267 13.27 28.0567 13.4767 27.8167 13.63C27.5834 13.7833 27.2967 13.86 26.9567 13.86ZM27.2967 12.85C27.5767 12.85 27.8134 12.7533 28.0067 12.56C28.2001 12.3667 28.2967 12.1167 28.2967 11.81V11.61H27.9467C27.4334 11.61 27.0701 11.6567 26.8567 11.75C26.6434 11.8367 26.5367 11.99 26.5367 12.21C26.5367 12.3967 26.6001 12.55 26.7267 12.67C26.8601 12.79 27.0501 12.85 27.2967 12.85ZM31.1231 11.52L30.6531 6.70002H32.5131L32.0331 11.52H31.1231ZM30.7731 13.75V12.15H32.3931V13.75H30.7731Z" fill="#AE1E22"/>
<rect x="0.624999" y="0.624999" width="38.7499" height="21.25" rx="6.87498" stroke="#AE1E22" stroke-width="1.25"/>
<path d="M9.57146 39.9907C7.64976 40.1358 6 38.5585 6 36.5462V21.4446C6 19.541 7.4866 18 9.31765 18H48.5674C50.3985 18 51.885 19.541 51.885 21.4446L51.9032 33.4642C51.9032 35.2771 50.5616 36.7819 48.8393 36.9088L48.7124 36.9269L9.57146 39.9907Z" fill="#ED2639" stroke="#AE1E22" stroke-width="0.725169"/>
<path d="M15.0646 21.5171C13.3967 22.4779 11.7288 23.4388 10.0972 24.4178C9.28139 24.9072 9.44456 26.1219 10.351 26.3757C12.454 26.974 14.557 27.5179 16.6781 28.0617C16.6781 26.1763 16.6419 24.2909 16.6419 22.4054C16.6419 21.6077 15.7717 21.1182 15.0646 21.5171Z" fill="white"/>
<path d="M13.8137 35.531L15.4997 35.3135C16.1886 35.2228 16.6963 34.6427 16.6963 33.9538L16.6781 29.1314L12.2909 28.0618V34.1713C12.2727 35.0053 12.9979 35.6398 13.8137 35.531Z" fill="white"/>
<path d="M23.5853 28.3336C23.7304 28.1523 23.8754 27.9892 24.0204 27.826C25.0175 26.7383 25.5433 26.1763 26.4679 25.161C26.5766 25.0341 26.7398 24.9797 26.903 24.9616L28.1539 24.9435C28.6796 24.9435 28.9516 25.5599 28.589 25.9406C27.7732 26.8289 26.9574 27.7172 26.1415 28.6056C25.9421 28.8231 25.9421 29.1313 26.1053 29.367C27.0843 30.636 28.0451 31.887 29.0422 33.156C29.3323 33.5367 29.0785 34.0987 28.589 34.1168L27.1205 34.1712C26.9211 34.1712 26.7398 34.0806 26.6129 33.9356C25.779 32.8115 25.2713 32.1045 24.4737 31.0349C24.2742 30.7629 23.8754 30.7086 23.6216 30.9261C23.4947 31.0349 23.3678 31.1255 23.2227 31.2524C23.0777 31.3612 23.0052 31.5425 23.0052 31.7057C23.0052 32.1952 23.0052 33.1741 23.0052 33.7905C23.0052 34.0987 22.7695 34.3525 22.4613 34.3707C21.8993 34.425 21.573 34.4432 21.0835 34.4794C20.739 34.5157 20.449 34.2438 20.449 33.8993C20.449 31.6331 20.449 24.1277 20.449 21.9521C20.449 21.6258 20.7209 21.3539 21.0472 21.3539H22.4251C22.7514 21.3539 23.0233 21.6258 23.0233 21.9521V27.1552C23.0233 27.4634 23.0052 27.7898 22.9871 28.098C22.9871 28.098 23.1865 28.4424 23.5853 28.3336Z" fill="white"/>
<path d="M32.0879 33.99L31.2721 34.0263C30.8008 34.0444 30.3838 33.6455 30.3838 33.1379C30.3838 30.7993 30.3838 24.5447 30.3838 22.2423C30.3838 21.7528 30.7826 21.3721 31.2721 21.3721H32.0698C32.5593 21.3721 32.9581 21.7709 32.9581 22.2423C32.9581 24.5628 32.9581 30.8355 32.9581 33.1198C32.9219 33.5912 32.5593 33.9719 32.0879 33.99Z" fill="white"/>
<path d="M36.167 21.3539C36.5477 21.3539 36.874 21.4445 37.146 21.6077C37.4179 21.7709 37.563 22.0972 37.563 22.5504C37.563 23.0036 37.4179 23.3118 37.146 23.4931C36.874 23.6744 36.5477 23.7651 36.167 23.7651C35.7863 23.7651 35.4418 23.6744 35.188 23.5113C34.9161 23.33 34.7892 23.0218 34.7892 22.5685C34.7892 22.1153 34.9161 21.789 35.188 21.6258C35.46 21.4445 35.7863 21.3539 36.167 21.3539ZM37.4361 25.7412C37.4361 27.4634 37.4361 31.2343 37.4361 32.9203C37.4361 33.3917 37.0553 33.7905 36.584 33.7905L35.7863 33.8087C35.2968 33.8268 34.8798 33.4279 34.8798 32.9203V25.723C34.8798 25.2517 35.2787 24.8528 35.75 24.8347H36.5658C37.0372 24.871 37.4361 25.2517 37.4361 25.7412Z" fill="white"/>
<path d="M42.5303 27.953C42.6754 27.7898 42.8204 27.6267 42.9654 27.4816C43.9625 26.4664 44.4883 25.9225 45.4129 24.9617C45.5217 24.8529 45.6667 24.7804 45.8299 24.7804L47.0445 24.7622C47.5703 24.7622 47.8422 25.3968 47.4796 25.7775C46.7001 26.5752 45.9024 27.391 45.1228 28.2068C44.9053 28.4243 44.9053 28.7688 45.0866 28.9863C46.0293 30.1466 46.9901 31.3069 47.9328 32.449C48.241 32.8297 47.9872 33.4099 47.4977 33.4099C47.0445 33.428 46.6094 33.4461 46.0474 33.4643C45.8661 33.4643 45.6667 33.3917 45.5579 33.2286C44.724 32.159 44.1982 31.5063 43.4187 30.4729C43.2192 30.2191 42.8385 30.1647 42.5847 30.3642C42.4578 30.4729 42.3309 30.5636 42.1859 30.6724C42.0408 30.7811 41.9502 30.9624 41.9502 31.1437C41.9502 31.597 41.9502 32.449 41.9502 33.011C41.9502 33.3374 41.6964 33.5912 41.3701 33.6093C40.8806 33.6274 40.4817 33.6456 39.9922 33.6637C39.6478 33.6818 39.3759 33.4099 39.3759 33.0654C39.3759 30.9624 39.3759 24.0189 39.3759 21.9341C39.3759 21.6078 39.6478 21.3358 39.9741 21.3358H41.3519C41.6783 21.3358 41.9502 21.6078 41.9502 21.9341V26.829C41.9502 27.119 41.9321 27.4091 41.9139 27.6992C41.9139 27.6992 42.1315 27.9892 42.5303 27.953Z" fill="white"/>
</svg>
