<svg width="284" height="249" viewBox="0 0 284 249" fill="none" xmlns="http://www.w3.org/2000/svg">
<path d="M34.7 185.3C24.1 186.1 15 177.4 15 166.3V83C15 72.5 23.2 64 33.3 64H249.8C259.9 64 268.1 72.5 268.1 83L268.2 149.3C268.2 159.3 260.8 167.6 251.3 168.3L250.6 168.4L34.7 185.3Z" fill="#ED2639" stroke="#AE1E22" stroke-width="4"/>
<path d="M65 83.4C55.8 88.7 46.6 94 37.6 99.4C33.1 102.1 34 108.8 39 110.2C50.6 113.5 62.2 116.5 73.9 119.5C73.9 109.1 73.7 98.7 73.7 88.3C73.7 83.9 68.9 81.2 65 83.4Z" fill="white"/>
<path d="M58.1 160.7L67.4 159.5C71.2 159 74 155.8 74 152L73.9 125.4L49.7 119.5V153.2C49.6 157.8 53.6 161.3 58.1 160.7Z" fill="white"/>
<path d="M112 121C112.8 120 113.6 119.1 114.4 118.2C119.9 112.2 122.8 109.1 127.9 103.5C128.5 102.8 129.4 102.5 130.3 102.4L137.2 102.3C140.1 102.3 141.6 105.7 139.6 107.8C135.1 112.7 130.6 117.6 126.1 122.5C125 123.7 125 125.4 125.9 126.7C131.3 133.7 136.6 140.6 142.1 147.6C143.7 149.7 142.3 152.8 139.6 152.9L131.5 153.2C130.4 153.2 129.4 152.7 128.7 151.9C124.1 145.7 121.3 141.8 116.9 135.9C115.8 134.4 113.6 134.1 112.2 135.3C111.5 135.9 110.8 136.4 110 137.1C109.2 137.7 108.8 138.7 108.8 139.6C108.8 142.3 108.8 147.7 108.8 151.1C108.8 152.8 107.5 154.2 105.8 154.3C102.7 154.6 100.9 154.7 98.2 154.9C96.3 155.1 94.7 153.6 94.7 151.7C94.7 139.2 94.7 97.8 94.7 85.8C94.7 84 96.2 82.5 98 82.5H105.6C107.4 82.5 108.9 84 108.9 85.8V114.5C108.9 116.2 108.8 118 108.7 119.7C108.7 119.7 109.8 121.6 112 121Z" fill="white"/>
<path d="M158.9 152.2L154.4 152.4C151.8 152.5 149.5 150.3 149.5 147.5C149.5 134.6 149.5 100.1 149.5 87.4C149.5 84.7 151.7 82.6 154.4 82.6H158.8C161.5 82.6 163.7 84.8 163.7 87.4C163.7 100.2 163.7 134.8 163.7 147.4C163.5 150 161.5 152.1 158.9 152.2Z" fill="white"/>
<path d="M181.4 82.5C183.5 82.5 185.3 83 186.8 83.9C188.3 84.8 189.1 86.6 189.1 89.1C189.1 91.6 188.3 93.3 186.8 94.3C185.3 95.3 183.5 95.8 181.4 95.8C179.3 95.8 177.4 95.3 176 94.4C174.5 93.4 173.8 91.7 173.8 89.2C173.8 86.7 174.5 84.9 176 84C177.5 83 179.3 82.5 181.4 82.5ZM188.4 106.7C188.4 116.2 188.4 137 188.4 146.3C188.4 148.9 186.3 151.1 183.7 151.1L179.3 151.2C176.6 151.3 174.3 149.1 174.3 146.3V106.6C174.3 104 176.5 101.8 179.1 101.7H183.6C186.2 101.9 188.4 104 188.4 106.7Z" fill="white"/>
<path d="M216.5 118.9C217.3 118 218.1 117.1 218.9 116.3C224.4 110.7 227.3 107.7 232.4 102.4C233 101.8 233.8 101.4 234.7 101.4L241.4 101.3C244.3 101.3 245.8 104.8 243.8 106.9C239.5 111.3 235.1 115.8 230.8 120.3C229.6 121.5 229.6 123.4 230.6 124.6C235.8 131 241.1 137.4 246.3 143.7C248 145.8 246.6 149 243.9 149C241.4 149.1 239 149.2 235.9 149.3C234.9 149.3 233.8 148.9 233.2 148C228.6 142.1 225.7 138.5 221.4 132.8C220.3 131.4 218.2 131.1 216.8 132.2C216.1 132.8 215.4 133.3 214.6 133.9C213.8 134.5 213.3 135.5 213.3 136.5C213.3 139 213.3 143.7 213.3 146.8C213.3 148.6 211.9 150 210.1 150.1C207.4 150.2 205.2 150.3 202.5 150.4C200.6 150.5 199.1 149 199.1 147.1C199.1 135.5 199.1 97.2 199.1 85.7C199.1 83.9 200.6 82.4 202.4 82.4H210C211.8 82.4 213.3 83.9 213.3 85.7V112.7C213.3 114.3 213.2 115.9 213.1 117.5C213.1 117.5 214.3 119.1 216.5 118.9Z" fill="white"/>
</svg>
